<?xml version="1.0" standalone="no"?>
<!DOCTYPE svg PUBLIC "-//W3C//DTD SVG 20010904//EN"
 "http://www.w3.org/TR/2001/REC-SVG-20010904/DTD/svg10.dtd">
<svg version="1.0" xmlns="http://www.w3.org/2000/svg"
 width="379.000000pt" height="854.000000pt" viewBox="0 0 379.000000 854.000000"
 preserveAspectRatio="xMidYMid meet">
<metadata>
Created by potrace 1.14, written by Peter Selinger 2001-2017
</metadata>
<g transform="translate(0.000000,854.000000) scale(0.100000,-0.100000)"
fill="#000000" stroke="none">
<path d="M1570 7841 c0 -99 3 -120 16 -125 27 -10 30 -7 26 28 -2 18 1 37 7
40 6 4 11 27 11 51 0 40 2 44 28 47 21 2 28 9 30 31 3 26 6 28 40 25 32 -3 37
-7 40 -30 3 -21 9 -27 30 -30 26 -3 27 -6 36 -85 8 -82 15 -93 44 -75 9 6 12
38 10 123 l-3 114 -157 3 -158 3 0 -120z"/>
<path d="M1570 7658 l0 -29 158 3 157 3 3 25 3 25 -161 1 -160 0 0 -28z"/>
<path d="M1208 6978 c-5 -77 -2 -88 26 -89 17 -1 18 -2 3 -6 -25 -6 -34 -38
-29 -105 l4 -58 74 0 c78 0 80 1 76 53 -1 10 2 26 8 35 7 13 9 5 10 -30 l0
-48 85 0 85 0 1 48 c1 81 -2 167 -8 172 -2 3 -9 -3 -14 -13 -6 -9 -18 -17 -27
-17 -14 0 -17 -8 -14 -42 5 -67 11 -88 27 -88 8 0 15 -4 15 -10 0 -5 -21 -11
-47 -11 -30 -1 -37 -4 -20 -6 36 -6 35 -23 -3 -23 -20 0 -30 5 -30 15 0 8 -9
15 -20 15 -11 0 -20 5 -20 10 0 6 8 10 18 10 16 0 19 9 21 57 1 31 4 60 7 65
3 4 -2 8 -10 8 -8 0 -22 10 -30 22 -15 21 -16 20 -16 -36 0 -66 -14 -69 -15
-3 -1 23 -2 63 -3 90 l-2 47 -74 0 -74 0 -4 -62z"/>
<path d="M1655 6927 c-20 -16 -28 -35 -32 -69 -5 -46 -5 -47 33 -63 33 -14 47
-15 89 -5 l50 12 -3 49 c-3 40 -10 54 -34 74 -37 31 -69 32 -103 2z"/>
<path d="M2842 6692 c-16 -11 -27 -72 -18 -106 8 -31 59 -60 92 -52 62 16 84
88 43 140 -16 21 -29 26 -62 26 -23 0 -48 -4 -55 -8z"/>
<path d="M995 6175 c-41 -40 -33 -105 16 -130 40 -21 62 -19 90 9 49 50 51 53
34 85 -32 63 -97 80 -140 36z"/>
<path d="M2805 5295 c-15 -15 -25 -36 -25 -54 0 -35 43 -91 71 -91 33 0 79 29
89 56 31 82 -74 151 -135 89z"/>
<path d="M2608 5263 c-2 -15 -1 -49 0 -75 l4 -48 74 0 75 0 -3 73 -3 72 -72 3
-72 3 -3 -28z"/>
<path d="M2241 5120 c-13 -11 -38 -20 -55 -20 l-32 0 1 -77 0 -78 68 -3 c65
-3 67 -2 78 24 5 15 9 51 7 78 -3 46 -5 51 -25 49 -25 -3 -30 16 -11 35 20 20
-5 13 -31 -8z"/>
<path d="M2355 4680 c3 -5 20 -13 38 -18 32 -8 32 -8 35 -80 l3 -72 152 3 152
2 3 73 c2 53 0 72 -10 73 -7 1 -61 1 -120 0 -108 -1 -142 4 -133 19 3 5 -11 4
-31 -1 -24 -7 -45 -7 -65 0 -17 6 -27 6 -24 1z"/>
<path d="M1022 4430 c2 -18 21 -29 93 -56 50 -19 95 -34 101 -34 7 0 22 -8 35
-18 17 -14 23 -30 23 -63 l1 -44 152 -3 152 -3 3 43 c4 55 28 58 43 5 6 -21
14 -38 18 -38 4 1 12 1 17 1 6 0 10 14 10 31 0 26 3 30 23 27 17 -2 23 -11 25
-36 4 -44 25 -36 33 11 4 28 2 41 -12 53 -17 15 -22 15 -66 1 -52 -17 -68 -12
-84 30 -10 26 -48 45 -64 32 -6 -4 -71 -6 -144 -4 -120 4 -142 8 -224 39 -141
52 -139 52 -135 26z"/>
<path d="M1873 4272 c-22 -3 -23 -8 -23 -78 l0 -74 75 0 76 0 -3 77 -3 77 -50
1 c-27 0 -60 -1 -72 -3z"/>
<path d="M2019 4210 c-1 -33 -2 -66 -3 -72 -1 -9 20 -13 74 -13 l75 0 3 73 3
72 -76 0 -75 0 -1 -60z"/>
<path d="M1372 3840 c-71 -59 25 -187 103 -136 29 19 49 80 35 107 -27 49 -97
64 -138 29z"/>
<path d="M1875 3712 c-51 -17 -60 -29 -60 -80 0 -91 61 -125 124 -68 49 44 44
102 -11 140 -24 17 -23 17 -53 8z"/>
<path d="M858 3563 c-27 -17 -42 -39 -52 -79 -9 -29 30 -61 95 -78 30 -8 63
-18 74 -22 l20 -7 -20 16 c-17 13 -18 19 -7 36 47 78 -37 180 -110 134z"/>
<path d="M2345 3520 c-10 -11 -21 -38 -25 -61 -7 -37 -5 -45 18 -65 31 -30 80
-31 115 -4 35 27 41 53 23 89 -31 59 -96 80 -131 41z"/>
<path d="M1980 3331 l0 -79 73 5 c39 3 77 4 82 4 6 0 19 -2 30 -3 11 -1 44 -1
73 0 l52 2 -2 75 -2 75 -153 0 -153 0 0 -79z"/>
<path d="M1285 3175 c-31 -30 -33 -76 -4 -116 40 -57 131 -26 145 48 6 32 3
40 -25 65 -40 36 -83 37 -116 3z"/>
</g>
</svg>
