<svg width="75px" height="75px" xmlns="http://www.w3.org/2000/svg" viewBox="0 0 182 182" enable-background="new 0 0 182 182"><path fill="#1160a6" d="m0-1v183h182v-183h-182"/><path fill="#fff" d="m162.96 145.39v-.575c-1.625 0-1.903-.49-2.478-1.779l-4.392-10.122h-.436l-4.382 10.122c-.634 1.442-1.1 1.779-2.489 1.779v.575h4.887v-.575c-1.675 0-1.972-.446-1.507-1.536l.833-1.929h3.996l.852 1.929c.457 1.071.268 1.536-1.517 1.536v.575h6.633m-6.354-4.951h-3.212l1.596-3.694 1.616 3.694m-6.95-6.588v-.575h-4.808v.575c1.686 0 1.953.348 1.953 2.364v5.11l-6.751-8.05h-4.055v.575c1.675 0 1.933.348 1.933 2.364v6.235c0 2.027-.258 2.364-1.933 2.364v.581h4.768v-.581c-1.674 0-1.933-.337-1.933-2.364v-6.691l8.378 9.978h.505v-9.522c0-2.02.227-2.363 1.943-2.363m-8.26-58.21c-2.356-3.506-7.585-5.03-10.487-3.141 1.303.25 2.125 1.288 2.985 2.444 1.774 2.458 1.228 5.886-1.211 7.664-2.449 1.788-5.867 1.238-7.65-1.21-1.034-1.404-1.321-3.575-.813-5.206 2.559-6.851 9.646-7.341 14.322-17.643 4.731-10.437-.795-22.974-11.328-23.834-4.204-.342-8.657 2.934-9 6.385 1.026-.868 2.347-1.362 3.788-1.294 3.03.12 5.378 2.684 5.248 5.715-.138 3.03-2.688 5.355-5.71 5.221-1.747-.056-3.622-1.192-4.574-2.592-3.77-6.274.24-12.13-4.898-22.19-5.211-10.214-18.479-13.688-25.686-5.978-2.902 3.077-3.086 8.403-.601 10.824-.047-1.343.397-2.688 1.34-3.774 1.995-2.291 5.451-2.527 7.733-.55 2.292 1.997 2.522 5.442.535 7.729-1.117 1.325-3.188 2.093-4.868 1.968-7.253-.965-9.351-7.747-20.42-9.987-11.226-2.264-22.2 5.95-20.669 16.396.61 4.181 4.694 7.803 8.122 7.35-1.072-.795-1.802-1.996-2.07-3.404-.545-2.98 1.422-5.831 4.398-6.39 2.976-.568 5.821 1.4 6.375 4.371.324 1.723-.351 3.816-1.497 5.05-5.266 5.082-11.873 2.489-20.521 9.757-8.778 7.378-9.175 21.09-.037 26.388 3.64 2.106 9.03 1.183 10.801-1.793-1.285.351-2.754.135-4.02-.545-2.68-1.423-3.697-4.74-2.274-7.429 1.423-2.661 4.722-3.672 7.392-2.249 1.552.803 2.763 2.638 3.01 4.309.703 7.277-5.433 10.843-5.136 22.14.323 11.458 10.801 20.295 20.631 16.451 3.927-1.543 6.541-6.329 5.332-9.572-.535 1.219-1.57 2.24-2.883 2.819-2.79 1.201-6.02-.075-7.225-2.86-1.21-2.763.065-5.978 2.837-7.179 1.598-.712 3.779-.513 5.249.324 6.135 3.982 5.1 11.01 14.13 17.796 9.166 6.888 22.591 4.189 25.714-5.905 1.237-4.02-.878-9.06-4.167-10.121.61 1.173.86 2.62.48 4-.812 2.924-3.843 4.633-6.753 3.821-2.929-.814-4.62-3.821-3.807-6.745.444-1.673 1.978-3.253 3.557-3.867 6.958-2.254 11.762 2.979 22.729.217 11.12-2.789 17.482-14.925 11.597-23.689m-26.38-18.751c-3.399 7.401-5.21 20.313-4.822 25.857h-36.848c.396-5.544-1.423-18.457-4.814-25.857.138-.009.286 0 .416 0 2.578 0 4.804 1.409 5.978 3.483.323-.083.684-.116 1.035-.116 2.439 0 4.426 2.075 4.426 4.639 0 2.555-1.987 4.633-4.426 4.633-.148 0-.305-.018-.462-.037.489 3.322 3.345 5.867 6.8 5.867 3.724 0 6.736-2.952 6.865-6.652-.388.125-.803.208-1.219.208-2.402 0-4.333-1.941-4.333-4.325 0-2.393 1.931-4.333 4.333-4.333.148 0 .304.009.444.033-.314-.568-.499-1.216-.499-1.894 0-2.13 1.737-3.871 3.871-3.871h.028c2.143 0 3.862 1.741 3.862 3.871 0 .678-.167 1.326-.49 1.894.139-.024.305-.033.462-.033 2.374 0 4.306 1.94 4.306 4.333 0 2.384-1.931 4.325-4.306 4.325-.434 0-.84-.083-1.228-.208.111 3.7 3.141 6.652 6.856 6.652 3.446 0 6.301-2.545 6.8-5.867-.157.019-.305.037-.471.037-2.439 0-4.426-2.079-4.426-4.633 0-2.564 1.987-4.639 4.426-4.639.36 0 .711.033 1.044.116 1.183-2.074 3.409-3.483 5.968-3.483.148 0 .286-.01.424 0m-76.28 79.33v4.455c0 2.598-1.24 3.817-2.974 3.817-1.744 0-3.142-1.219-3.142-3.817v-4.455c0-2.02.238-2.374 1.943-2.374v-.58h-6.405v.58c1.676 0 1.934.356 1.934 2.374v4.669c0 3.167 2.16 4.853 4.847 4.853 2.667 0 4.868-1.686 4.868-4.853v-4.669c0-2.02.258-2.374 1.933-2.374v-.58h-4.957v.58c1.695 0 1.953.356 1.953 2.374m-17.507-.798c0-1 .803-1.611 1.635-1.611 2.112 0 2.787 1.844 2.905 3.459h.604v-4.456h-.575c-.109.437-.347.729-.585.932-.615-.446-1.279-.833-2.469-.833-1.972 0-3.509 1.383-3.509 3.049 0 1.988 1.021 2.954 2.716 3.817l1.953 1.01c.941.495 1.477 1.318 1.477 2.046 0 1.334-.843 2-2.01 2-1.655 0-3.331-1.374-3.737-3.534h-.595v4.436h.595c.089-.436.347-.753.585-.942.654.148 1.616.942 3.152.942 2.082 0 4.02-1.463 4.02-3.664 0-1.606-1.179-2.845-2.607-3.594l-1.943-.986c-1.079-.534-1.614-1.45-1.614-2.07m19.12 24.06h-.595v4.446h.595c.099-.455.337-.748.585-.952.655.129 1.616.952 3.163.952 2.062 0 4.01-1.482 4.01-3.693 0-1.585-1.169-2.825-2.598-3.563l-1.953-1.01c-1.08-.535-1.596-1.462-1.596-2.051 0-1.01.784-1.622 1.626-1.622 2.112 0 2.765 1.84 2.915 3.46h.585v-4.447h-.565c-.098.407-.356.724-.574.937-.635-.461-1.289-.843-2.488-.843-1.964 0-3.52 1.368-3.52 3.034 0 1.997 1.041 2.944 2.746 3.837l1.933.996c.962.497 1.497 1.319 1.497 2.038 0 1.353-.852 2.01-2.01 2.01-1.667 0-3.342-1.384-3.749-3.535m15.671-20.16c0-3.519-3.053-6.404-6.742-6.404-3.738 0-6.751 2.885-6.751 6.404 0 3.535 3.01 6.42 6.751 6.42 3.689 0 6.742-2.885 6.742-6.42m-2.726 0c0 2.459-1.169 5.452-4.02 5.452-2.875 0-4.054-2.994-4.054-5.452 0-2.433 1.18-5.427 4.054-5.427 2.845 0 4.02 2.994 4.02 5.427m17.289 3.133v-6.23c0-2.032.248-2.375 1.934-2.375v-.58h-3.936l-3.777 8.75-3.907-8.75h-4.03v.58c1.675 0 1.913.342 1.913 2.375v6.23c0 2.02-.238 2.355-1.913 2.355v.59h4.758v-.59c-1.675 0-1.933-.333-1.933-2.355v-5.834l4.055 9.116h.456l3.956-9.14v5.859c0 2.02-.258 2.355-1.943 2.355v.59h6.305v-.59c-1.686-.001-1.934-.334-1.934-2.356m7.703-.338v-2.691h1.11c2.02 0 2.34.243 2.34 1.948h.595v-4.789h-.595c0 1.675-.318 1.948-2.34 1.948h-1.11v-4.357h3.083c1.874 0 2.072.471 2.36 1.546l.098.397h.585l-.169-2.855h-10.408v.58c1.676 0 1.923.352 1.923 2.374v6.235c0 2.027-.247 2.355-1.923 2.355v.585h11.08l.168-2.851h-.575l-.118.407c-.248 1.075-.496 1.541-2.35 1.541h-1.814c-1.686.002-1.944-.34-1.944-2.373m-30.21 9.916c1.615 0 1.903.456 2.468 1.774l4.412 10.112h.426l4.381-10.112c.605-1.37 1.059-1.74 2.303-1.771 1.481.031 1.703.428 1.703 2.351v6.221c0 2.043-.239 2.39-1.914 2.39v.574h11.01v.005h4.888v-.579c-1.685 0-1.983-.456-1.517-1.551l.833-1.909h3.996l.852 1.909c.466 1.085.258 1.551-1.517 1.551v.58h6.642v-.005h7.227c2.508 0 4.095-1.517 4.095-3.39 0-1.452-.932-2.721-2.509-3.202.943-.545 1.487-1.447 1.487-2.503 0-1.686-1.418-3.039-3.629-3.039h-6.879v.6c1.676 0 1.924.337 1.924 2.354v6.226c0 1.939-.23 2.349-1.716 2.381v-.002c-1.616 0-1.903-.496-2.478-1.774l-4.402-10.123h-.426l-4.382 10.123c-.619 1.389-1.081 1.756-2.395 1.772l.134-2.273h-.585l-.1.416c-.268 1.056-.496 1.521-2.359 1.521h-1.804c-1.695 0-1.953-.327-1.953-2.364v-2.682h1.12c2.01 0 2.33.234 2.33 1.938h.595v-4.797h-.595c0 1.675-.317 1.938-2.33 1.938h-1.12v-4.347h3.083c1.874 0 2.072.455 2.359 1.546l.089.392h.605l-.168-2.85h-10.01-.396-4.501v.6c1.685 0 1.983.437 1.517 1.522l-2.845 6.578-2.826-6.578c-.466-1.066-.267-1.522 1.508-1.522v-.6h-6.632v.599h-.001m43.21 5.577h1.794c1.745 0 2.578 1.15 2.578 2.529 0 1.392-.833 2.497-2.548 2.518.04 0 .069.01.119.01h-.149c.01 0 .02-.01.03-.01-1.547-.03-1.824-.361-1.824-2.23v-2.817m0-5.255h1.12c1.537 0 2.241 1 2.241 2.192 0 1.19-.704 2.151-2.241 2.151h-1.12v-4.343m-13.81 6.271l1.606-3.708 1.597 3.708h-3.203m19.518-22.412v5.11l-6.761-8.05h-4.045v.575c1.676 0 1.913.348 1.913 2.364v6.235c0 2.027-.237 2.364-1.913 2.364v.581h4.769v-.581c-1.676 0-1.934-.337-1.934-2.364v-6.691l8.368 9.978h.515v-9.522c0-2.02.229-2.364 1.924-2.364v-.575h-4.779v.575c1.675.001 1.943.348 1.943 2.365m8.585 5.903v-5.898c0-2.02.268-2.374 1.953-2.374v-.58h-6.394v.58c1.675 0 1.913.356 1.913 2.374v6.235c0 2.027-.238 2.355-1.913 2.355v.59h11.589l.158-2.856h-.595l-.098.407c-.268 1.075-.476 1.541-2.35 1.541h-2.309c-1.686.001-1.954-.341-1.954-2.374m-5.341 15.398c0 3.511 3.02 6.405 6.742 6.405 3.707 0 6.742-2.894 6.742-6.405 0-3.523-3.035-6.414-6.742-6.414-3.718.001-6.742 2.891-6.742 6.414m2.706 0c0-2.458 1.17-5.452 4.03-5.452 2.865 0 4.04 2.995 4.04 5.452 0 2.435-1.171 5.434-4.04 5.434-2.864 0-4.03-2.999-4.03-5.434m17.189-24.25h-6.394v.58c1.675 0 1.933.352 1.933 2.374v6.235c0 2.027-.258 2.355-1.933 2.355v.585h6.394v-.585c-1.674 0-1.953-.328-1.953-2.355v-6.235c0-2.02.278-2.374 1.953-2.374v-.58m1.419 18.18h-6.781v.585c1.686 0 1.913.348 1.913 2.355v6.236c0 2.032-.227 2.374-1.913 2.374v.58h6.395v-.58c-1.686 0-1.944-.342-1.944-2.374v-2.354h.586l3.599 5.308h4.4v-.58c-1.238-.164-2.01-.639-3.797-2.588l-1.962-2.141c2.201-.203 3.589-1.646 3.589-3.401.001-1.888-1.576-3.42-4.085-3.42m-1.209.902c1.754 0 2.578 1.145 2.578 2.517 0 1.368-.824 2.483-2.578 2.483h-1.121v-5h1.121m11.924-16.13v5.11l-6.761-8.05h-4.04v.575c1.675 0 1.904.348 1.904 2.364v6.235c0 2.027-.229 2.364-1.904 2.364v.581h4.768v-.581c-1.685 0-1.943-.337-1.943-2.364v-6.691l8.367 9.978h.516v-9.522c0-2.02.238-2.364 1.943-2.364v-.575h-4.799v.575c1.676.001 1.953.348 1.953 2.365m-4.02 21.297c0 3.524 2.806 6.414 6.216 6.414 2.032 0 2.865-1.056 5.244-1.056v-1.368c0-2.02.248-2.354 1.943-2.354v-.59h-5.987v.59c1.408 0 1.904.426 1.904 1.298 0 1.859-1.438 2.498-3.03 2.498-2.775 0-3.559-2.925-3.559-5.432 0-2.509.784-5.443 3.559-5.443 2 0 3.629 1.423 4.204 4.05h.575v-4.456h-.575c-.099.501-.268.947-.505 1.15-1.061-1.086-2.37-1.716-3.777-1.716-3.411 0-6.217 2.89-6.217 6.415"/></svg>
